<?xml version="1.0" encoding="iso-8859-1"?>
<!-- Generator: Adobe Illustrator 16.0.0, SVG Export Plug-In . SVG Version: 6.00 Build 0)  -->
<!DOCTYPE svg PUBLIC "-//W3C//DTD SVG 1.1//EN" "http://www.w3.org/Graphics/SVG/1.1/DTD/svg11.dtd">
<svg version="1.1" id="Capa_1" xmlns="http://www.w3.org/2000/svg" xmlns:xlink="http://www.w3.org/1999/xlink" x="0px" y="0px"
	 width="611.999px" height="611.998px" viewBox="0 0 611.999 611.998" style="enable-background:new 0 0 611.999 611.998;"
	 xml:space="preserve">
<g>
	<g>
		<path d="M611.997,252.865c-0.351-14.693-1.895-35.009-3.117-44.769c-0.046-0.36-0.121-0.72-0.223-1.066
			c-4.239-14.121-33.056-118.917-36.327-130.82c-0.785-2.839-3.365-4.809-6.31-4.809H464.137c-0.167,0-0.327,0-0.49,0H45.488
			c-2.944,0-5.524,1.969-6.31,4.809C29.644,110.871,7.068,192.833,3.346,205.227c-0.104,0.344-0.18,0.693-0.223,1.05
			c-1.217,9.479-2.76,29.729-3.12,44.766c-0.003,0.134-0.003,0.271,0,0.406c0.67,17.607,6.525,31.319,17.401,40.752
			c0.919,0.798,1.864,1.527,2.816,2.237c0.239,65.614,0.478,175.007-0.464,198.353c-1.73,43.695,38.947,47.748,39.356,47.785
			c0.189,0.016,0.379,0.021,0.569,0.021h33.802c3.611,0,6.542-2.93,6.542-6.541V348.354h137.595v185.699
			c0,3.611,2.931,6.543,6.542,6.543h307.647c0.078,0,0.16,0,0.238-0.004c16.365-0.602,47.314-10.99,47.314-46.012V289.143
			c7.785-9.063,12.062-21.068,12.632-35.869C612,253.14,612,253.002,611.997,252.865z M13.086,251.151
			c0.354-14.336,1.792-33.373,2.947-42.689c4.01-13.519,24.417-87.549,34.439-123.978H463.64c0.167,0,0.327,0,0.49,0h96.898
			c7.366,26.782,30.573,111.061,34.93,125.77c1.168,9.587,2.607,28.699,2.951,42.719c-0.563,13.61-4.838,24.005-12.672,30.943
			c-0.55,0.484-1.115,0.935-1.685,1.377c-0.271,0.209-0.536,0.428-0.814,0.631c-0.556,0.405-1.125,0.785-1.694,1.154
			c-0.226,0.147-0.455,0.292-0.684,0.432c-0.628,0.386-1.26,0.755-1.897,1.099c-0.098,0.052-0.196,0.101-0.294,0.153
			c-3.003,1.583-6.101,2.725-9.077,3.536c-0.052,0.013-0.102,0.029-0.153,0.042c-0.717,0.193-1.427,0.37-2.126,0.526
			c-0.102,0.023-0.203,0.042-0.305,0.065c-1.021,0.223-2.008,0.406-2.97,0.563c-0.383,0.062-0.772,0.134-1.145,0.186
			c-0.223,0.033-0.429,0.052-0.648,0.082c-0.67,0.088-1.338,0.167-1.969,0.229c-0.043,0.003-0.088,0.006-0.131,0.013
			c-5.626,0.527-9.61,0.108-9.705,0.095c-0.242-0.026-0.487-0.042-0.735-0.042c-0.069,0-0.141,0-0.21,0.003
			c-1.694,0.056-3.34,0.065-4.959,0.059c-0.873-0.003-1.717-0.033-2.567-0.056c-0.899-0.023-1.806-0.046-2.682-0.091
			c-0.867-0.046-1.708-0.111-2.552-0.177c-0.812-0.062-1.619-0.125-2.407-0.206c-0.86-0.088-1.697-0.196-2.528-0.308
			c-0.72-0.095-1.436-0.193-2.136-0.304c-0.851-0.137-1.682-0.291-2.503-0.451c-0.631-0.125-1.262-0.249-1.877-0.386
			c-0.834-0.187-1.652-0.389-2.453-0.602c-0.557-0.147-1.105-0.301-1.646-0.461c-0.808-0.239-1.597-0.494-2.368-0.759
			c-0.49-0.17-0.975-0.347-1.452-0.53c-0.766-0.291-1.518-0.596-2.251-0.916c-0.441-0.193-0.87-0.396-1.295-0.602
			c-0.717-0.343-1.423-0.693-2.1-1.066c-0.399-0.219-0.782-0.448-1.165-0.677c-0.657-0.393-1.308-0.789-1.927-1.21
			c-0.366-0.249-0.713-0.51-1.062-0.769c-0.589-0.435-1.174-0.87-1.728-1.334c-0.34-0.285-0.657-0.589-0.984-0.883
			c-0.517-0.471-1.03-0.942-1.508-1.436c-0.317-0.331-0.611-0.684-0.912-1.027c-0.438-0.497-0.877-0.988-1.279-1.511
			c-0.304-0.396-0.575-0.814-0.857-1.223c-0.35-0.507-0.713-1.004-1.033-1.531c-0.294-0.484-0.546-0.995-0.814-1.498
			c-0.262-0.491-0.54-0.968-0.778-1.479c-0.291-0.631-0.536-1.292-0.788-1.95c-0.164-0.418-0.351-0.821-0.497-1.25
			c-0.377-1.105-0.703-2.247-0.976-3.424c-0.66-2.872-3.159-4.949-6.1-5.07c-2.865-0.147-5.61,1.737-6.506,4.543
			c-0.451,1.417-0.981,2.738-1.551,4.014c-0.102,0.232-0.202,0.464-0.311,0.693c-0.592,1.259-1.227,2.466-1.92,3.591
			c-0.029,0.049-0.062,0.092-0.092,0.141c-10.66,17.13-32.408,19.188-42.182,19.188c-1.832,0-3.17-0.075-3.941-0.134
			c-0.082-0.006-0.15-0.013-0.216-0.016c-0.164-0.013-0.327-0.026-0.409-0.036c-0.281-0.029-0.569-0.033-0.851-0.029
			c-2.109,0.062-4.15,0.085-6.149,0.085c-1.171,0-2.293-0.033-3.428-0.056c-0.834-0.017-1.685-0.023-2.496-0.052
			c-1.298-0.046-2.548-0.121-3.797-0.2c-0.596-0.036-1.211-0.062-1.793-0.108c-1.305-0.098-2.561-0.222-3.808-0.356
			c-0.483-0.052-0.98-0.095-1.455-0.15c-1.266-0.151-2.486-0.327-3.689-0.514c-0.409-0.065-0.828-0.125-1.23-0.19
			c-1.203-0.203-2.361-0.432-3.499-0.67c-0.367-0.079-0.739-0.154-1.1-0.235c-1.118-0.255-2.198-0.53-3.251-0.821
			c-0.34-0.095-0.684-0.189-1.018-0.288c-1.027-0.304-2.018-0.625-2.979-0.965c-0.324-0.115-0.642-0.229-0.959-0.35
			c-0.925-0.347-1.818-0.713-2.682-1.096c-0.314-0.141-0.621-0.285-0.929-0.432c-0.818-0.386-1.613-0.789-2.368-1.21
			c-0.308-0.173-0.605-0.35-0.903-0.53c-0.71-0.422-1.399-0.854-2.054-1.309c-0.305-0.209-0.586-0.432-0.877-0.651
			c-0.602-0.451-1.19-0.906-1.74-1.387c-0.298-0.262-0.572-0.537-0.854-0.808c-0.49-0.468-0.978-0.936-1.423-1.429
			c-0.294-0.327-0.553-0.674-0.827-1.011c-0.38-0.471-0.769-0.936-1.109-1.43c-0.284-0.415-0.529-0.854-0.788-1.282
			c-0.271-0.452-0.562-0.896-0.808-1.364c-0.285-0.556-0.517-1.138-0.759-1.717c-0.16-0.383-0.347-0.749-0.487-1.142
			c-0.356-0.991-0.658-2.015-0.896-3.075c-0.667-2.989-3.32-5.112-6.382-5.116h-0.003c-3.062,0-5.715,2.123-6.382,5.109
			c-3.532,15.75-21.202,24.306-51.01,24.745h-0.478c-19.881-0.098-47.209-2.604-53.562-25.284c-0.792-2.83-3.373-4.776-6.297-4.776
			c-0.068,0-0.131,0-0.196,0.003c-3.006,0.088-5.561,2.211-6.202,5.148c-0.232,1.066-0.53,2.093-0.88,3.091
			c-0.15,0.425-0.35,0.824-0.52,1.236c-0.229,0.549-0.441,1.105-0.709,1.635c-0.259,0.514-0.573,0.998-0.867,1.488
			c-0.235,0.389-0.451,0.792-0.709,1.168c-0.37,0.54-0.789,1.053-1.204,1.566c-0.239,0.294-0.461,0.599-0.716,0.883
			c-0.478,0.54-1.008,1.053-1.541,1.563c-0.239,0.229-0.468,0.461-0.719,0.684c-0.589,0.523-1.224,1.018-1.875,1.505
			c-0.242,0.18-0.474,0.366-0.723,0.543c-0.7,0.49-1.439,0.961-2.205,1.416c-0.246,0.147-0.487,0.294-0.739,0.438
			c-0.805,0.451-1.648,0.883-2.522,1.298c-0.255,0.121-0.507,0.242-0.769,0.36c-0.903,0.409-1.845,0.795-2.82,1.161
			c-0.271,0.102-0.549,0.203-0.828,0.304c-0.998,0.357-2.028,0.694-3.094,1.011c-0.301,0.088-0.605,0.173-0.913,0.258
			c-1.079,0.301-2.185,0.586-3.333,0.848c-0.35,0.078-0.707,0.153-1.063,0.229c-1.142,0.242-2.306,0.475-3.513,0.681
			c-0.419,0.072-0.854,0.134-1.282,0.199c-1.184,0.187-2.385,0.36-3.631,0.51c-0.52,0.062-1.063,0.111-1.596,0.167
			c-1.197,0.127-2.404,0.249-3.654,0.343c-0.677,0.053-1.383,0.085-2.077,0.125c-1.158,0.069-2.316,0.141-3.517,0.187
			c-0.945,0.033-1.933,0.042-2.908,0.062c-1.011,0.02-2.005,0.049-3.042,0.049c-2.015,0.003-4.072-0.02-6.198-0.085
			c-0.281-0.003-0.566,0-0.847,0.03c-0.098,0.01-0.275,0.026-0.487,0.042c-0.03,0.003-0.059,0.003-0.092,0.006
			c-0.766,0.059-2.139,0.138-4.007,0.138c-10.156,0-32.634-2.208-42.957-20.528c-0.049-0.088-0.105-0.173-0.154-0.262
			c-0.661-1.197-1.259-2.476-1.812-3.814c-0.102-0.246-0.196-0.5-0.294-0.752c-0.53-1.367-1.021-2.784-1.426-4.301
			c-0.778-2.915-3.359-4.995-6.473-4.854c-3.019,0.069-5.6,2.198-6.241,5.148c-0.262,1.194-0.579,2.352-0.945,3.474
			c-0.157,0.481-0.36,0.936-0.54,1.403c-0.232,0.618-0.455,1.246-0.719,1.841c-0.255,0.566-0.556,1.103-0.844,1.646
			c-0.239,0.458-0.464,0.929-0.723,1.371c-0.343,0.585-0.736,1.138-1.119,1.694c-0.252,0.366-0.487,0.746-0.756,1.102
			c-0.428,0.569-0.899,1.105-1.367,1.646c-0.271,0.311-0.53,0.631-0.814,0.936c-0.5,0.533-1.043,1.037-1.586,1.537
			c-0.301,0.278-0.592,0.562-0.906,0.831c-0.566,0.484-1.168,0.938-1.773,1.39c-0.343,0.255-0.677,0.513-1.034,0.759
			c-0.615,0.425-1.266,0.828-1.923,1.223c-0.399,0.239-0.792,0.481-1.204,0.71c-0.654,0.363-1.334,0.707-2.024,1.043
			c-0.471,0.229-0.942,0.455-1.426,0.67c-0.677,0.301-1.377,0.582-2.087,0.857c-0.556,0.216-1.119,0.425-1.691,0.625
			c-0.684,0.239-1.387,0.464-2.1,0.68c-0.661,0.2-1.331,0.393-2.015,0.572c-0.677,0.18-1.364,0.35-2.064,0.514
			c-0.778,0.18-1.57,0.344-2.375,0.497c-0.661,0.128-1.328,0.252-2.012,0.367c-0.896,0.147-1.812,0.278-2.741,0.396
			c-0.648,0.085-1.295,0.17-1.956,0.239c-1.004,0.108-2.035,0.193-3.075,0.268c-0.648,0.049-1.289,0.098-1.946,0.138
			c-1.073,0.059-2.178,0.091-3.287,0.118c-0.69,0.016-1.374,0.042-2.081,0.046c-1.655,0.013-3.333,0.003-5.063-0.049
			c-0.301-0.006-0.592,0-0.886,0.033c-0.239,0.023-0.936,0.082-1.939,0.125c-0.111,0.003-0.2,0.01-0.314,0.013
			c-0.245,0.01-0.533,0.013-0.811,0.02c-0.189,0.003-0.373,0.01-0.579,0.01c-0.307,0.003-0.647,0-0.984-0.003
			c-0.219,0-0.438-0.003-0.674-0.006c-0.373-0.007-0.772-0.023-1.174-0.04c-0.222-0.01-0.451-0.02-0.684-0.029
			c-0.455-0.023-0.922-0.052-1.406-0.088c-0.196-0.016-0.399-0.033-0.602-0.049c-0.546-0.046-1.102-0.098-1.681-0.164
			c-0.131-0.013-0.265-0.033-0.399-0.049c-5.077-0.611-11.213-2.018-17.032-5.089c-0.052-0.029-0.105-0.056-0.157-0.082
			c-0.762-0.405-1.521-0.847-2.267-1.315c-1.528-0.955-3.029-2.008-4.449-3.238C17.983,275.385,13.649,264.899,13.086,251.151z
			 M551.658,527.516H250.703V341.811c0-3.611-2.931-6.541-6.542-6.541H93.482c-3.611,0-6.542,2.93-6.542,6.541v185.701H60.008
			c-2.979-0.33-28.372-4.029-27.178-34.205c0.88-21.803,0.769-114.086,0.5-191.842c8.109,3.003,15.962,3.893,21.523,4.059
			c0.056,0,0.111,0.004,0.164,0.007c0.608,0.017,1.174,0.026,1.724,0.026c0.127,0,0.275,0.006,0.399,0.006
			c0.098,0,0.177-0.003,0.271-0.003c0.271,0,0.523-0.003,0.779-0.01c0.418-0.007,0.805-0.017,1.174-0.03
			c0.108-0.002,0.219-0.006,0.324-0.01c0.48-0.02,0.922-0.042,1.302-0.064c0,0,0.003,0,0.006,0c0.393-0.026,0.749-0.053,1.03-0.079
			c35.673,1.034,52.633-11.131,60.745-23.711c0.494,0.762,1.04,1.442,1.563,2.155c0.343,0.475,0.667,0.962,1.03,1.423
			c0.51,0.645,1.05,1.233,1.58,1.838c0.487,0.556,0.968,1.119,1.481,1.652c0.455,0.471,0.926,0.906,1.394,1.354
			c0.667,0.638,1.341,1.269,2.047,1.871c0.331,0.278,0.664,0.543,0.998,0.811c0.906,0.733,1.835,1.439,2.8,2.113
			c0.121,0.085,0.242,0.164,0.366,0.249c4.328,2.97,9.221,5.413,14.713,7.226c8.439,2.783,16.567,3.614,22.37,3.784
			c0.239,0.007,0.474,0.017,0.703,0.022c0.092,0.004,0.177,0.004,0.269,0.004c0.517,0.01,1.04,0.02,1.481,0.02
			c2.532,0,4.386-0.117,5.449-0.209c2.012,0.055,3.964,0.082,5.862,0.082c0.085,0,0.167-0.004,0.255-0.004
			c0.265,0,0.514-0.01,0.775-0.01c1.714-0.01,3.405-0.036,5.057-0.092c0.386-0.014,0.752-0.035,1.135-0.053
			c1.498-0.059,2.98-0.131,4.422-0.229c0.445-0.029,0.876-0.072,1.318-0.107c1.345-0.105,2.679-0.216,3.978-0.354
			c0.478-0.052,0.939-0.111,1.41-0.167c1.227-0.144,2.44-0.298,3.621-0.471c0.491-0.072,0.972-0.157,1.456-0.235
			c1.122-0.183,2.231-0.373,3.31-0.582c0.5-0.098,0.988-0.203,1.479-0.308c1.024-0.216,2.035-0.441,3.019-0.687
			c0.504-0.124,0.995-0.255,1.488-0.386c0.932-0.249,1.848-0.507,2.748-0.782c0.5-0.154,0.995-0.311,1.485-0.471
			c0.844-0.278,1.672-0.566,2.483-0.87c0.494-0.183,0.988-0.37,1.472-0.562c0.762-0.304,1.505-0.625,2.237-0.949
			c0.484-0.216,0.968-0.432,1.439-0.657c0.687-0.331,1.351-0.677,2.012-1.024c0.471-0.249,0.942-0.497,1.396-0.755
			c0.615-0.354,1.204-0.723,1.792-1.093c0.452-0.284,0.909-0.565,1.344-0.86c0.553-0.376,1.073-0.772,1.6-1.168
			c0.422-0.317,0.857-0.628,1.263-0.958c0.494-0.402,0.958-0.827,1.429-1.25c0.393-0.35,0.798-0.69,1.171-1.05
			c0.455-0.441,0.874-0.906,1.299-1.367c0.343-0.366,0.707-0.723,1.03-1.103c0.52-0.602,0.994-1.236,1.469-1.868
			c0.187-0.249,0.396-0.48,0.576-0.732c14.673,20.044,44.154,21.054,57.11,21.107c0.288,0,0.523,0,0.795,0
			c0.386,0,0.812,0.004,1.161,0.004h0.52H308c3.471-0.053,6.716-0.229,9.823-0.481c3.689-0.297,7.134-0.726,10.342-1.272
			c0.89-0.15,1.773-0.308,2.627-0.478c18.189-3.598,28.52-11.03,34.328-18.671c0.317,0.438,0.681,0.848,1.018,1.272
			c0.344,0.432,0.671,0.877,1.033,1.295c0.377,0.432,0.792,0.837,1.191,1.253c0.379,0.399,0.749,0.808,1.151,1.19
			c0.408,0.393,0.854,0.762,1.285,1.142c0.435,0.379,0.856,0.769,1.314,1.135c0.442,0.356,0.916,0.693,1.381,1.033
			c0.487,0.36,0.968,0.723,1.479,1.066c0.478,0.321,0.978,0.625,1.472,0.936c0.543,0.337,1.083,0.674,1.648,0.998
			c0.507,0.288,1.034,0.562,1.561,0.837c0.595,0.311,1.197,0.622,1.815,0.919c0.539,0.259,1.096,0.504,1.654,0.749
			c0.648,0.285,1.306,0.563,1.977,0.831c0.572,0.229,1.157,0.448,1.753,0.664c0.7,0.255,1.413,0.504,2.139,0.742
			c0.608,0.2,1.224,0.393,1.849,0.579c0.752,0.226,1.518,0.442,2.296,0.648c0.645,0.173,1.292,0.34,1.949,0.5
			c0.802,0.193,1.619,0.373,2.443,0.549c0.681,0.144,1.361,0.291,2.058,0.422c0.851,0.164,1.721,0.308,2.594,0.452
			c0.717,0.118,1.43,0.238,2.162,0.347c0.899,0.131,1.825,0.242,2.751,0.356c0.749,0.091,1.488,0.187,2.251,0.268
			c0.958,0.098,1.949,0.177,2.937,0.258c0.769,0.062,1.528,0.135,2.316,0.188c1.043,0.068,2.119,0.114,3.188,0.163
			c0.77,0.036,1.524,0.082,2.31,0.108c1.204,0.039,2.446,0.049,3.684,0.064c0.689,0.008,1.357,0.029,2.057,0.029
			c0.043,0,0.085,0,0.128,0c1.897,0,3.856-0.025,5.868-0.081c1.06,0.091,2.904,0.21,5.43,0.21c0.255,0,0.575-0.01,0.86-0.014
			c0.281-0.004,0.56-0.006,0.854-0.014c0.167-0.003,0.334-0.01,0.504-0.013c5.604-0.147,13.463-0.913,21.692-3.503
			c6.958-2.188,13.012-5.358,18.145-9.368c0.11-0.085,0.222-0.17,0.333-0.255c0.919-0.733,1.803-1.495,2.656-2.283
			c0.288-0.265,0.582-0.517,0.867-0.792c0.703-0.68,1.367-1.39,2.024-2.11c0.376-0.409,0.762-0.795,1.125-1.22
			c0.625-0.732,1.2-1.501,1.779-2.27c0.308-0.409,0.642-0.775,0.942-1.201c2.849,4.501,6.865,8.966,12.445,12.819
			c0.285,0.196,0.547,0.405,0.841,0.599c0.265,0.173,0.56,0.333,0.828,0.503c6.96,4.403,16.19,7.863,28.519,9.352
			c0.409,0.05,0.86,0.075,1.275,0.118c1.437,0.156,2.879,0.307,4.4,0.408c0.856,0.057,1.775,0.068,2.659,0.111
			c1.142,0.053,2.253,0.121,3.44,0.141c0.651,0.01,1.354-0.016,2.021-0.014c1.481,0.004,2.95,0.018,4.501-0.031
			c1.021,0.098,2.744,0.215,5.096,0.215c1.78,0,4.203-0.102,6.971-0.375c0.521-0.05,1.05-0.108,1.59-0.171
			c0.389-0.049,0.766-0.091,1.167-0.147c1.152-0.156,2.343-0.35,3.565-0.578c0.046-0.01,0.089-0.017,0.135-0.026
			c5.593-1.06,11.805-2.947,17.774-6.254V494.58C586.277,525.113,554.163,527.385,551.658,527.516z"/>
		<path d="M527.358,336.447H328.492c-3.61,0-6.542,2.93-6.542,6.541v98.877c0,3.611,2.932,6.543,6.542,6.543h198.866
			c3.611,0,6.542-2.932,6.542-6.543v-98.877C533.9,339.375,530.972,336.447,527.358,336.447z M520.816,435.32H335.034v-85.789
			h185.782V435.32z"/>
		<path d="M57.322,268.677c0.102,0.003,0.203,0.006,0.304,0.006c3.474,0,6.369-2.738,6.529-6.244
			c0.164-3.611-2.63-6.669-6.237-6.833c-5.656-0.258-9.59-2.087-12.034-5.597c-6.424-9.234-2.421-28.156-0.34-34.665
			c0.046-0.138,0.085-0.278,0.121-0.422l27.453-109.815c0.877-3.503-1.256-7.055-4.759-7.932c-3.493-0.863-7.055,1.253-7.935,4.763
			l-27.4,109.612c-1.237,3.916-8.884,30.073,2.106,45.908C38.466,262.266,45.027,268.117,57.322,268.677z"/>
		<path d="M67.845,504.295c-11.586-1.93-10.052-16.932-9.842-18.609c0.039-0.287,0.059-0.574,0.059-0.865V321.627
			c0-3.611-2.931-6.543-6.542-6.543c-3.611,0-6.542,2.932-6.542,6.543v162.787c-1.207,10.219,1.586,29.602,20.715,32.787
			c0.363,0.062,0.729,0.092,1.083,0.092c3.144,0,5.914-2.266,6.447-5.469C73.814,508.26,71.407,504.891,67.845,504.295z"/>
		<path d="M268.098,336.434c-3.611,0-6.542,2.932-6.542,6.543v161.672c0,3.611,2.931,6.541,6.542,6.541s6.542-2.93,6.542-6.541
			V342.977C274.64,339.365,271.709,336.434,268.098,336.434z"/>
	</g>
</g>
<g>
</g>
<g>
</g>
<g>
</g>
<g>
</g>
<g>
</g>
<g>
</g>
<g>
</g>
<g>
</g>
<g>
</g>
<g>
</g>
<g>
</g>
<g>
</g>
<g>
</g>
<g>
</g>
<g>
</g>
</svg>
