<?xml version="1.0" encoding="iso-8859-1"?>
<!-- Generator: Adobe Illustrator 18.1.1, SVG Export Plug-In . SVG Version: 6.00 Build 0)  -->
<svg version="1.1" id="Capa_1" xmlns="http://www.w3.org/2000/svg" xmlns:xlink="http://www.w3.org/1999/xlink" x="0px" y="0px"
	 viewBox="0 0 56.69 56.69" style="enable-background:new 0 0 56.69 56.69;" xml:space="preserve">
<g>
	<path style="fill:#010002;" d="M55.423,30.756c-1.791,0.591-3.582,0.132-5.193-0.748c-0.932-0.509-1.67-1.023-2.396-1.745
		c-0.416-0.413-0.991-0.345-1.414,0c-2.963,2.418-7.29,1.807-10.257-0.156c-0.271-0.179-0.74-0.197-1.01,0
		c-2.422,1.77-5.305,2.206-8.206,1.57c-1.48-0.324-2.803-0.791-4.065-1.57c-0.399-0.246-0.878-0.138-1.212,0.156
		c-3.143,2.77-7.821,2.02-11.038-0.156c-0.392-0.265-0.882-0.122-1.212,0.156c-1.506,1.27-3.495,1.881-5.388,2.289
		c-1.092,0.236-1.936,0.37-3.031,0.418c-0.206,0.009-0.366,0.079-0.506,0.172c-0.28,0.148-0.494,0.414-0.494,0.828
		c0,6.036,0,12.07,0,18.107c0,0.213,0,0.429,0,0.643c0,0.545,0.455,1,1,1c1.667,0,3.333,0,5,0c0.545,0,1-0.455,1-1
		c0-4.584,0-9.166,0-13.75c1.667,0,3.333,0,5,0c0,4.584,0,9.166,0,13.75c0,0.545,0.455,1,1,1c4.802,0,9.604,0,14.406,0
		c7.66,0,15.32,0,22.98,0c1.768,0,3.534,0,5.301,0c0.545,0,1-0.455,1-1c0-6.07,0-12.141,0-18.211c0-0.264,0-0.525,0-0.789
		C56.688,31.094,56.046,30.55,55.423,30.756z M41.282,49.718c-7.66,0-15.32,0-22.981,0c-1.434,0-2.867,0-4.301,0
		c0-4.584,0-9.166,0-13.75c0-0.545-0.455-1-1-1c-2.333,0-4.667,0-7,0c-0.545,0-1,0.455-1,1c0,4.584,0,9.166,0,13.75c-1,0-2,0-3,0
		c0-5.607,0-11.213,0-16.82c2.854-0.25,5.858-1.062,8.177-2.732c1.225,0.727,2.612,1.255,3.974,1.584
		c2.946,0.709,5.905,0.204,8.303-1.585c4.036,2.227,9.323,2.521,13.234-0.021c1.158,0.667,2.467,1.145,3.748,1.432
		c2.691,0.605,5.355,0.169,7.606-1.327c2.074,1.795,4.918,3.067,7.646,2.719c0,5.584,0,11.167,0,16.751
		C50.22,49.718,45.751,49.718,41.282,49.718z"/>
	<path style="fill:#010002;" d="M0.273,29.395c0.02,0.022,0.04,0.041,0.061,0.062c0.019,0.013,0.035,0.027,0.055,0.039
		C0.56,29.642,0.768,29.743,1,29.722c3.235-0.305,6.822-1.558,9.024-4.026c1.644-1.842,2.051-4.388,2.658-6.703
		c0.679-2.593,1.326-5.195,1.963-7.8c0.404-1.651,0.804-3.302,1.195-4.956c0.149-0.631-0.296-1.267-0.964-1.267
		c-2.083,0-4.167,0-6.25,0c-0.463,0-0.822,0.309-0.964,0.734c-1.975,5.892-3.95,11.784-5.925,17.676
		c-0.567,1.691-1.134,3.383-1.701,5.074c-0.027,0.08-0.019,0.147-0.027,0.221C0.008,28.692,0,28.704,0,28.721
		c0,0.004,0.002,0.007,0.002,0.011C-0.011,29.009,0.093,29.234,0.273,29.395z M7.889,11.31c0.485-1.446,0.97-2.894,1.455-4.34
		c1.421,0,2.842,0,4.263,0c-0.791,3.313-1.601,6.622-2.446,9.921c-0.323,1.26-0.652,2.518-0.994,3.773
		c-0.292,1.073-0.534,2.133-1.145,3.077c-1.094,1.691-3.095,2.673-4.919,3.273c-0.532,0.175-1.076,0.312-1.623,0.435
		C4.283,22.069,6.086,16.689,7.889,11.31z"/>
	<path style="fill:#010002;" d="M13.043,23.739c-0.534,2.106,0.543,4.035,2.583,4.738c2.018,0.696,4.196-0.344,5.203-2.148
		c0.506-0.906,0.681-2.003,0.921-3.005c0.382-1.596,0.764-3.192,1.146-4.788c0.981-4.1,1.963-8.2,2.944-12.3
		c0.151-0.629-0.297-1.266-0.964-1.266c-2.083,0-4.167,0-6.25,0c-0.437,0-0.856,0.304-0.964,0.734
		c-1.515,6.016-2.996,12.043-4.617,18.031C13.045,23.737,13.043,23.737,13.043,23.739z M19.405,6.97c1.401,0,2.803,0,4.204,0
		c-1.311,5.478-2.623,10.956-3.934,16.435c-0.065,0.272-0.13,0.544-0.195,0.816c-0.127,0.531-0.318,1.118-0.632,1.516
		c-0.313,0.396-0.725,0.679-1.058,0.8c-0.451,0.164-0.682,0.179-1.226,0.124c0.207,0.021-0.107-0.029-0.123-0.032
		c-0.127-0.028-0.252-0.069-0.375-0.111c-0.026-0.01-0.028-0.011-0.043-0.017c-0.053-0.025-0.107-0.052-0.159-0.079
		c-0.095-0.05-0.185-0.11-0.274-0.171c-0.009-0.012-0.134-0.108-0.143-0.115c-0.094-0.085-0.178-0.18-0.259-0.276
		c0.105,0.124-0.229-0.452-0.171-0.304c-0.187-0.477-0.169-0.795-0.045-1.285C16.527,18.526,17.955,12.743,19.405,6.97z"/>
	<path style="fill:#010002;" d="M44.788,17.423c0.322,1.26,0.652,2.518,0.994,3.773c0.324,1.191,0.626,2.383,1.248,3.462
		c1.162,2.012,3.188,3.313,5.316,4.109c1.062,0.398,2.209,0.675,3.342,0.771c0.441,0.037,0.719-0.182,0.855-0.479
		c0.005-0.006,0.008-0.013,0.012-0.02c0.017-0.037,0.032-0.072,0.043-0.112c0.087-0.186,0.127-0.401,0.055-0.656
		c-1.707-5.984-3.414-11.968-5.121-17.953c-0.439-1.538-0.879-3.076-1.316-4.615c-0.122-0.427-0.517-0.733-0.965-0.733
		c-2.083,0-4.167,0-6.25,0c-0.668,0-1.113,0.636-0.964,1.266C42.921,9.973,43.835,13.703,44.788,17.423z M48.496,6.97
		c1.638,5.739,3.274,11.479,4.912,17.219c0.291,1.022,0.583,2.045,0.874,3.067c-0.585-0.146-1.163-0.319-1.723-0.541
		c-1.855-0.733-3.627-2.185-4.32-4.192c-0.828-2.396-1.35-4.94-1.971-7.396c-0.598-2.371-1.18-4.746-1.752-7.123
		c-0.083-0.344-0.165-0.689-0.248-1.034C45.678,6.97,47.087,6.97,48.496,6.97z"/>
	<path style="fill:#010002;" d="M36.274,23.937c0.133,0.557,0.246,1.129,0.447,1.666c0.547,1.452,1.689,2.621,3.229,2.972
		c1.364,0.311,2.764-0.069,3.823-0.962c1.125-0.947,1.406-2.505,1.059-3.874c-1.621-5.989-3.104-12.018-4.618-18.035
		c-0.108-0.43-0.526-0.734-0.963-0.734c-2.083,0-4.167,0-6.25,0c-0.667,0-1.115,0.637-0.964,1.266
		C33.449,12.136,34.862,18.036,36.274,23.937z M42.903,24.262c0,0.003-0.001,0.006,0,0.009c0.375,1.476-0.703,2.472-2.188,2.407
		c-0.236-0.011-0.624-0.123-0.867-0.249c-0.363-0.187-0.645-0.442-0.879-0.782c-0.335-0.486-0.479-1.033-0.613-1.598
		c-0.711-2.968-1.422-5.936-2.131-8.904c-0.653-2.725-1.305-5.45-1.958-8.175c1.401,0,2.803,0,4.204,0
		C39.922,12.741,41.349,18.519,42.903,24.262z"/>
	<path style="fill:#010002;" d="M22.935,25.357c-0.298,1.265,1.255,2.251,2.25,2.656c1.523,0.62,3.252,0.585,4.845,0.308
		c1.341-0.233,2.934-0.785,3.804-1.894c0.023-0.03,0.035-0.064,0.056-0.095c0.051-0.067,0.095-0.136,0.126-0.215
		c0.021-0.047,0.029-0.095,0.044-0.143c0.014-0.055,0.031-0.106,0.037-0.164c0.012-0.085,0.006-0.167-0.005-0.252
		c-0.003-0.035,0.004-0.069-0.002-0.104c-0.981-6.077-1.961-12.153-2.942-18.23c-0.082-0.507-0.164-1.014-0.244-1.52
		c-0.071-0.432-0.557-0.734-0.966-0.734c-0.472,0-0.943,0-1.417,0c-0.432,0-0.863,0.303-0.964,0.734
		c-1.416,6.018-2.831,12.037-4.247,18.055C23.186,24.292,23.06,24.825,22.935,25.357z M29.088,7.931
		c0.032-0.135,0.063-0.271,0.096-0.406c0.911,5.647,1.822,11.293,2.733,16.941c0.049,0.304,0.098,0.607,0.146,0.911
		c-0.859,0.733-2.246,1.034-3.42,1.116c-1.264,0.089-2.893-0.076-3.687-0.997C26.334,19.641,27.71,13.786,29.088,7.931z"/>
	<path style="fill:#010002;" d="M51.376,37.22c-5.695,0-11.393,0-17.089,0c-4.783,0-9.565,0-14.348,0c-0.409,0-0.75,0.341-0.75,0.75
		c0,2.333,0,4.667,0,7c0,0.409,0.341,0.75,0.75,0.75c5.696,0,11.393,0,17.089,0c4.783,0,9.564,0,14.348,0
		c0.206,0,0.359-0.077,0.478-0.185c0.017-0.013,0.034-0.023,0.05-0.038c0.015-0.016,0.025-0.033,0.038-0.05
		c0.107-0.118,0.185-0.271,0.185-0.478c0-2.333,0-4.667,0-7C52.126,37.561,51.785,37.22,51.376,37.22z M50.626,44.22
		c-5.445,0-10.893,0-16.339,0c-4.533,0-9.065,0-13.598,0c0-1.833,0-3.667,0-5.5c5.446,0,10.893,0,16.339,0c4.533,0,9.064,0,13.598,0
		C50.626,40.553,50.626,42.387,50.626,44.22z"/>
</g>
<g>
</g>
<g>
</g>
<g>
</g>
<g>
</g>
<g>
</g>
<g>
</g>
<g>
</g>
<g>
</g>
<g>
</g>
<g>
</g>
<g>
</g>
<g>
</g>
<g>
</g>
<g>
</g>
<g>
</g>
</svg>
